<?xml version="1.0" encoding="UTF-8" standalone="no"?><!DOCTYPE svg PUBLIC "-//W3C//DTD SVG 1.1//EN" "http://www.w3.org/Graphics/SVG/1.1/DTD/svg11.dtd"><svg width="100%" height="100%" viewBox="0 0 256 256" version="1.1" xmlns="http://www.w3.org/2000/svg" xmlns:xlink="http://www.w3.org/1999/xlink" xml:space="preserve" xmlns:serif="http://www.serif.com/" style="fill-rule:evenodd;clip-rule:evenodd;stroke-linejoin:round;stroke-miterlimit:2;"><path d="M45.315,105.912c1.276,-0 2.312,1.036 2.312,2.312c0,1.276 -1.036,2.312 -2.312,2.312l-20.382,0c-1.276,-0 -2.312,-1.036 -2.312,-2.312c0,-1.276 1.036,-2.312 2.312,-2.312l20.382,0Z" style="fill:#e8c23d;"/><path d="M50.702,90.457c1.139,0.576 1.596,1.968 1.02,3.107c-0.576,1.139 -1.968,1.596 -3.107,1.02l-14.535,-7.351c-1.139,-0.576 -1.596,-1.968 -1.02,-3.107c0.576,-1.139 1.968,-1.596 3.107,-1.02l14.535,7.351Z" style="fill:#e8c23d;"/><path d="M60.276,74.809c0.923,0.881 0.958,2.345 0.077,3.269c-0.881,0.923 -2.345,0.958 -3.269,0.077l-16.289,-15.537c-0.923,-0.881 -0.958,-2.345 -0.077,-3.269c0.881,-0.923 2.345,-0.958 3.269,-0.077l16.289,15.537Z" style="fill:#e8c23d;"/><path d="M76.032,66.105c0.471,1.186 -0.108,2.531 -1.294,3.003c-1.186,0.471 -2.531,-0.108 -3.003,-1.294l-5.513,-13.866c-0.471,-1.186 0.108,-2.531 1.294,-3.003c1.186,-0.471 2.531,0.108 3.003,1.294l5.513,13.866Z" style="fill:#e8c23d;"/><path d="M93.18,63.785c-0,1.276 -1.036,2.312 -2.312,2.312c-1.276,-0 -2.312,-1.036 -2.312,-2.312l0,-23.055c-0,-1.276 1.036,-2.312 2.312,-2.312c1.276,-0 2.312,1.036 2.312,2.312l0,23.055Z" style="fill:#e8c23d;"/><path d="M110.362,68.003c-0.576,1.139 -1.968,1.595 -3.107,1.019c-1.139,-0.576 -1.595,-1.968 -1.019,-3.107l7.017,-13.866c0.576,-1.139 1.968,-1.595 3.107,-1.019c1.139,0.576 1.595,1.968 1.019,3.107l-7.017,13.866Z" style="fill:#e8c23d;"/><path d="M124.955,78.131c-0.91,0.894 -2.375,0.882 -3.27,-0.028c-0.894,-0.91 -0.882,-2.375 0.028,-3.27l9.69,-9.523c0.91,-0.894 2.375,-0.882 3.27,0.028c0.894,0.91 0.882,2.375 -0.028,3.27l-9.69,9.523Z" style="fill:#e8c23d;"/><path d="M133.951,93.803c-1.169,0.511 -2.533,-0.022 -3.045,-1.192c-0.511,-1.169 0.022,-2.533 1.192,-3.045l8.019,-3.508c1.169,-0.511 2.533,0.022 3.045,1.192c0.511,1.169 -0.022,2.533 -1.192,3.045l-8.019,3.508Z" style="fill:#e8c23d;"/><path d="M129.887,119.155c-0.224,1.256 -1.426,2.094 -2.682,1.87c-1.256,-0.224 -2.094,-1.426 -1.87,-2.682c5.27,-29.554 -18.388,-47.089 -39.699,-43.762c-14.279,2.229 -27.285,13.884 -30.005,37.251c-0.148,1.268 -1.296,2.177 -2.564,2.029c-1.268,-0.148 -2.177,-1.296 -2.029,-2.564c3.038,-26.093 17.941,-38.796 33.885,-41.286c24.024,-3.751 50.905,15.825 44.964,49.143Z" style="fill:#e8c23d;"/><path d="M137.085,111.705c-1.276,0.028 -2.335,-0.984 -2.363,-2.26c-0.028,-1.276 0.984,-2.335 2.26,-2.363l22.554,-0.501c1.276,-0.028 2.335,0.984 2.363,2.26c0.028,1.276 -0.984,2.335 -2.26,2.363l-22.554,0.501Z" style="fill:#e8c23d;"/><path d="M177.658,142.389c-0,1.276 -1.036,2.312 -2.312,2.312c-1.276,-0 -2.312,-1.036 -2.312,-2.312l0,-75.43c-0,-1.276 1.036,-2.312 2.312,-2.312c1.276,-0 2.312,1.036 2.312,2.312l0,75.43Z" style="fill:#5f9e67;"/><path d="M200.759,74.013c0.929,-0.875 2.394,-0.83 3.268,0.099c0.875,0.929 0.83,2.394 -0.099,3.268c0,0 -12.143,11.426 -20.11,20.737c-3.156,3.688 -5.694,6.954 -6.245,8.938c-0.342,1.23 -1.617,1.95 -2.847,1.609c-1.23,-0.342 -1.95,-1.617 -1.609,-2.847c0.652,-2.346 3.454,-6.345 7.187,-10.707c8.104,-9.472 20.454,-21.098 20.454,-21.098Z" style="fill:#5f9e67;"/><path d="M152.937,77.517c-1.005,-0.787 -1.181,-2.241 -0.394,-3.246c0.787,-1.005 2.241,-1.181 3.246,-0.394c0,0 7.779,6.093 14.001,14.148c4.352,5.635 7.868,12.232 7.868,18.412c0,1.276 -1.036,2.312 -2.312,2.312c-1.276,0 -2.312,-1.036 -2.312,-2.312c0,-5.261 -3.198,-10.788 -6.904,-15.585c-5.864,-7.592 -13.193,-13.335 -13.193,-13.335Z" style="fill:#5f9e67;"/><path d="M135.883,57.046c0,0 39.597,4.448 31.904,31.563c0,0 -25.347,15.545 -31.904,-31.563Zm5.656,5.767c2.504,12.49 6.472,18.904 10.937,21.823c4.419,2.889 8.984,1.739 11.315,0.795c1.809,-9.635 -4.454,-15.269 -11.151,-18.642c-3.85,-1.939 -7.894,-3.192 -11.101,-3.976Z" style="fill:#5f9e67;"/><path d="M175.923,24.868c0,0 25.083,30.96 0.572,44.875c0,0 -28.965,-6.717 -0.572,-44.875Zm-0.019,8.078c-6.983,10.654 -8.658,18.008 -7.526,23.221c1.12,5.16 5.178,7.544 7.501,8.508c8.051,-5.594 7.544,-14.003 5.141,-21.106c-1.381,-4.083 -3.382,-7.815 -5.116,-10.624Z" style="fill:#5f9e67;"/><path d="M223.049,55.175c0,0 4.761,45.768 -37.869,40.615c0,0 -14.452,-36.889 37.869,-40.615Zm-4.473,5.07c-15.548,1.886 -23.663,7.082 -27.538,13.286c-4.166,6.669 -3.254,14.098 -2.336,17.944c9.428,0.603 15.951,-1.722 20.395,-5.65c4.54,-4.013 6.865,-9.545 8.115,-14.686c1.002,-4.123 1.308,-8.034 1.365,-10.894Z" style="fill:#5f9e67;"/><path d="M164.592,114.036c1.268,-0.145 2.415,0.767 2.559,2.035c0.145,1.268 -0.767,2.415 -2.035,2.559c0,0 -22.955,2.561 -35.945,14.445c-0.488,0.446 -1.143,0.662 -1.8,0.594c-0.657,-0.068 -1.254,-0.415 -1.639,-0.952c0,0 -9.928,-13.199 -60.366,-14.454l-32.184,80.558l189.908,0.806l-32.209,-81.609l-7.532,0c-1.276,-0 -2.312,-1.036 -2.312,-2.312c0,-1.276 1.036,-2.312 2.312,-2.312l9.105,0c0.949,-0 1.802,0.58 2.151,1.463l34.04,86.247c0.282,0.714 0.191,1.52 -0.242,2.153c-0.433,0.633 -1.152,1.011 -1.919,1.007l-196.719,-0.835c-0.765,-0.003 -1.479,-0.385 -1.907,-1.02c-0.428,-0.635 -0.514,-1.44 -0.23,-2.15l34.04,-85.203c0.357,-0.894 1.23,-1.473 2.192,-1.454c43.357,0.847 59.117,10.527 63.866,14.614c14.149,-11.532 36.867,-14.182 36.867,-14.182Z" style="fill:#317db1;"/><path d="M48.709,129.494l-29.798,78.739l92.746,0.806c0.706,0.006 1.37,0.334 1.804,0.891c0,0 3.992,5.089 10.838,6.27c4.696,0.81 10.666,-0.288 17.643,-5.824c0.409,-0.324 0.915,-0.501 1.437,-0.501l94.604,0l-30.423,-80.997l-10.093,0l0,-4.624l10.481,-0l1.225,0.189l1.089,0.534l0.883,0.831l0.608,1.081l30.673,81.663l0.251,1.037l-0.004,1.052l-0.253,1.021l-0.497,0.944l-0.709,0.797l-0.867,0.596l-0.983,0.373l-1.059,0.129l-94.132,-0c-8.121,6.213 -15.157,7.208 -20.661,6.259c-6.687,-1.153 -11.208,-5.276 -12.926,-7.102l-92.506,-0.804l-0.976,-0.127l-0.905,-0.351l-0.796,-0.555l-0.65,-0.739l-0.454,-0.873l-0.229,-0.943l0,-0.97l0.235,-0.956l30.341,-80.173l0.527,-0.934l0.763,-0.72l0.94,-0.465l1.058,-0.169l11.39,-0.072l0.029,4.624l-10.646,0.067Z" style="fill:#317db1;"/><path d="M125.966,131.786c0,-1.276 1.036,-2.312 2.312,-2.312c1.276,0 2.312,1.036 2.312,2.312l0,70.167c0,1.276 -1.036,2.312 -2.312,2.312c-1.276,0 -2.312,-1.036 -2.312,-2.312l0,-70.167Z" style="fill:#317db1;"/><path d="M218.908,182.51c1.251,0.25 2.064,1.47 1.814,2.721c-0.25,1.251 -1.47,2.064 -2.721,1.814c0,0 -20.042,-4.002 -43.202,-1.156c-15.285,1.878 -31.958,6.729 -45.024,17.828c-0.973,0.826 -2.433,0.707 -3.259,-0.265c-0.826,-0.973 -0.707,-2.433 0.265,-3.259c13.78,-11.706 31.332,-16.912 47.453,-18.893c23.949,-2.943 44.673,1.212 44.673,1.212Z" style="fill:#317db1;"/><path d="M36.995,186.945c-1.27,0.124 -2.402,-0.807 -2.526,-2.077c-0.124,-1.27 0.807,-2.402 2.077,-2.526c0,0 24.235,-2.365 49.063,0.942c16.882,2.249 33.99,7.179 44.266,16.998c0.923,0.882 0.956,2.346 0.074,3.269c-0.882,0.923 -2.346,0.956 -3.269,0.074c-9.657,-9.227 -25.817,-13.644 -41.682,-15.757c-24.292,-3.235 -48.004,-0.923 -48.004,-0.923Z" style="fill:#317db1;"/></svg>